/* XPM */
static char *bitcoin128[] = {
/* columns rows colors chars-per-pixel */
"128 128 54 1 ",
"  c #E6453D",
". c #E64C3C",
"X c #E5513F",
"o c #E34642",
"O c #E54E41",
"+ c #E45443",
"@ c #E35A43",
"# c #E45B48",
"$ c #E56144",
"% c #E56349",
"& c #E66A49",
"* c #27AD5F",
"= c #28AD5F",
"- c #31A95F",
"; c #1FAD60",
": c #24AD61",
"> c #2BAD61",
", c #32AE65",
"< c #39AD65",
"1 c #36AF68",
"2 c #3AAF69",
"3 c #31B063",
"4 c #3CB06B",
"5 c #40AF6C",
"6 c #41B26E",
"7 c #48B46C",
"8 c #44B371",
"9 c #49B574",
"0 c #46BB72",
"q c #F0C307",
"w c #F0C30E",
"e c #F0C513",
"r c #F1C61C",
"t c #F1C81C",
"y c #F1C721",
"u c #F1C824",
"i c #F1C728",
"p c #F1CA2B",
"a c #FED52C",
"s c #F2CC33",
"d c #F2CD38",
"f c #F2CC43",
"g c #F3D047",
"h c #F3D150",
"j c #F4D359",
"k c #7867A5",
"l c #7A69A5",
"z c #7B6CA8",
"x c #7E70A1",
"c c #816DA5",
"v c #8374A5",
"b c #8D7FA6",
"n c #8272A8",
"m c None",
/* pixels */
"mmmmmmmmmmmmmmmmmmmmmmmmmmmmmmmmmmmmmmmmmmmmmmmmmmmmmmwweiyyrryyiwwwwwmmmmmmmmmmmmmmmmmmmmmmmmmmmmmmmmmmmmmmmmmmmmmmmmmmmmmmmmmm",
"mmmmmmmmmmmmmmmmmmmmmmmmmmmmmmmmmmmmmmmmmmmmmreeeewwewwwwwwwwwwwwwwwweweryryyimmmmmmmmmmmmmmmmmmmmmmmmmmmmmmmmmmmmmmmmmmmmmmmmmm",
"mmmmmmmmmmmmmmmmmmmmmmmmmmmmmmmmmmmmmmmyrreeewwwewwwwwwwwwwwwwwwwwwwewwwwwwweqwerupmmmmmmmmmmmmmmmmmmmmmmmmmmmmmmmmmmmmmmmmmmmmm",
"mmmmmmmmmmmmmmmmmmmmmmmmmmmmmmmmmmmirreewwwewwwwwwwwwwwwwwwwwwwwwwwwwwwwwwwwwwwwwqweeipmmmmmmmmmmmmmmmmmmmmmmmmmmmmmmmmmmmmmmmmm",
"mmmmmmmmmmmmmmmmmmmmmmmmmmmmmmmmirewwwwwwwwwwwwwwwwwwwwwewwwwwwwwwwwwwwwwwwwwwwwwwwwqqwwypmmmmmmmmmmmmmmmmmmmmmmmmmmmmmmmmmmmmmm",
"mmmmmmmmmmmmmmmmmmmmmmmmmmmmmyrewwwwwwwwwwwwwwwwwwwwwwwwwwwwwwwwwwwwwwwwwwwwwwewwwwwwwwwqqeypmmmmmmmmmmmmmmmmmmmmmmmmmmmmmmmmmmm",
"mmmmmmmmmmmmmmmmmmmmmmmmmmmreewwwwwwwwwwwwwwwwwwwwwwwwewwwwwwwewwwwwwwwwwwwwwwwwwwwwwwwweweqqeismmmmmmmmmmmmmmmmmmmmmmmmmmmmmmmm",
"mmmmmmmmmmmmmmmmmmmmmmmmmeewewwwwwwwwwwwwwwwwwwwwwwwwwwwwwwwwwewwwwwwwwwwwwwwwwwwwwwwwwwwwwweqqeypmmmmmmmmmmmmmmmmmmmmmmmmmmmmmm",
"mmmmmmmmmmmmmmmmmmmmmmmreewwwwwwwwwwwwqqwwwwwwwwwwwwwwwwwwwwwwwwwwwwwwwwwwwwwwww&qqwwwwwwwwwwwwwqwypmmmmmmmmmmmmmmmmmmmmmmmmmmmm",
"mmmmmmmmmmmmmmmmmmmmmewwwwwwwwwwwwwwww&wwwwwwwwwwwwwwwwwwwwwwwwwwwwwwwwwwewwwwwwwwwwwwwwwwwwwwwwwwqwymmmmmmmmmmmmmmmmmmmmmmmmmmm",
"mmmmmmmmmmmmmmmmmmmeeewwwwwwwwwwwwwwwwwwwwwwwwwwwwwwwwwwwwwwwwewwwwwwwwwwwwwwwwwwwwwwwwwwwwwwwwwwwweqeummmmmmmmmmmmmmmmmmmmmmmmm",
"mmmmmmmmmmmmmmmmmmewwwwwwwwwwwwwwwwwwwwwwrwwwwwwwwwwwwwwwwwwwwwwwwwwwwwwwwwwwwwwwwwwwwwwwwwwwwwwwwwwwwwymmmmmmmmmmmmmmmmmmmmmmmm",
"mmmmmmmmmmmmmmmmmeewwwwwwwwwwwwwwwwwwwwwwwwwwwwwwwwwwwwwwwwwwwwwwwwwwwwwwwwwwwwwwwwwwwwwwwwwwwwwwwwwwwwqrmmmmmmmmmmmmmmmmmmmmmmm",
"mmmmmmmmmmmmmmmmeewwwwwwwwwwwwwwwwwwwwwwwwwwwwwwwwwwwwewwwwwwwwwwwwwwwwwwwwwwwwwwwwwwwwwwwwwwwwwwwwwwwwwqrmmmmmmmmmmmmmmmmmmmmmm",
"mmmmmmmmmmmmmmmewwwwwwwewwwwwwwwwwwwwwwwwwwwwwwwwwwwwwwwwwwwwwwwwwwwwewwwwwwwwwwwwwwwwwwwwwwwwwwwwwwwwwwwqemmmmmmmmmmmmmmmmmmmmm",
"mmmmmmmmmmmmmmeewwwwwwwwwwwwwwwwwwwwwwwwwwwwwwwwwwwwwwwwwwwwwwwwwwwwwwwwwwwwwwwwwwwwwwwwwwwwwwwwwwwwwewwwwqymmmmmmmmmmmmmmmmmmmm",
"mmmmmmmmmmmmmrwwwwwwwwwwwwwwwwwwwwwwwwwwwwwwwwwwwwwwwwwwwwwwwwwwwwwwwwwwwwwwwwwwwwwwwwwwwwwwwwwwwwwwwwwwwweqimmmmmmmmmmmmmmmmmmm",
"mmmmmmmmmmmmewwwwwwwwwwwwwwwwwwwwwwwwwwwwwwwwwwwwwewwwwwwwwwwwwwwwweewwwwwwwwwwwrwwwwwwwwwwwwwwrwwwwwwwwwwwwqpmmmmmmmmmmmmmmmmmm",
"mmmmmmmmmmmmewwwwwwwwwwwwwwwwwwwwwwwwwwwwwwwwwwwwwwwwwwwwwwwwwwwwwwwwwwewwwwwwwwwwwwwwwwwwwwwwwwwwwwwwwwwwwwqemmmmmmmmmmmmmmmmmm",
"mmmmmmmmmmmmwwwwwwwwwwwwwwwwwwwwwwwwrwwwwwwwwwwwwwwwwwwewwwwwwwwwwwwwwwwwwwwwwwwwwwwwwwwwwwwwwwwwwwwwwwwwwwwewpmmmmmmmmmmmmmmmmm",
"mmmmmmmmmmmwwwwwwwwwwwwwwwwwwwwwwwwwwwwwwwwwwwwwwwwwwwwewwwwwwwwwwwewwwwwwwwwwwwwwwwwwwwwwwwwwwwwwwwwwwwwwwwwqummmmmmmmmmmmmmmmm",
"mmmmmmmmmmmwwwwwwwwwwwewwwwwwwwwwwwwwwwwwwwwwwwwwwwwwwwwwwwwwwwwwwwwwwwwwwwwwwwwwwwwwwwwwwwwwwwwwwwwwwwwwwwweqemmmmmmmmmmmmmmmmm",
"mmmmmmmmmmmwwwwwwwwwwwwwwwwewwwwwwwwwwwwwwwwwwwwwwwwwwwwwwwwwwwwwwwwwwwwwwwwwwwwwwwwwwwwwwwwwwwwwwwwwwwwwwwwwqemmmmmmmmmmmmmmmmm",
"mmmmmmmmmmmwwwwwwwwwwwwwwwwwwwwwwwwwwwwwwwwwwwwwwwwwwwwwwwwwwwwwwwwwwwwwwwwwwwwwwwwwwwwrwwwwwwwwwwwwwwwewwwwqqtmmmmmmmmmmmmmmmmm",
"mmmmmmmmmmmwwwwwwwwwwwwwwwwwwwwwwwwwwwwwwwwwwwwwwwwwwwwwwewwwwwwwwwwwwwwwwwwwwwwwwwwwwwwwwwwwwwwwwwwwwwwwwwwwqemmmmmmmmmmmmmmmmm",
"mmmmmmmmmmmwewwwwwwwwwwwwwwwwwwwwwwwwwwwwwwwwwwwwwwwwwwwwwwwwwwwwwwwwwewwwwwwwwwwwwwwwwwwwwwwwwwwwwwwwwwwwwweqemmmmmmmmmmmmmmmmm",
"mmmmmmmmmmmewwwwwwwwwwwwwwwewwwwwwwwwwwwwwwwwwwwwwwwwwwwwwwwwwwwwwwwwwwwwwwwwwwwwwwwwwwwwwwwwwwwwwwwwwwwwwwwwqymmmmmmmmmmmmmmmmm",
"mmmmmmmmmmmrewwwwwwwwwwwwwwewwewrwwwwwwwwwwwwwwwwwwwwwwwwwwwwwwwwwwwwwwwwwwwwwwwwwwwwwwwwwwwwwwwewwwwwwwwwwwwwpmmmmmmmmmmmmmmmmm",
"mmmmmmmmmmmmrwwwwwwwwwwwwwwwwwwwwwwwwwwwwwwwwwwwwwwwwwwwwwwewwwwwwwwwwwwwwwwwwwwwwwwwwwwwwwwwwwwwwwwwwwwwwwwqemmmmmmmmmmmmmmmmmm",
"mmmmmmmmmmmmiwwwwwwewwwwwwwwwwwwwwwwwwwwwwwwwwwwrwwwwwwwwwwewwwwwwwwwwwwwwwwwwwwwwwwwwwwwwwwrwwwwwwwwwwwwwewesmmmmmmmmmmmmmmmmmm",
"mmmmmmmmmmmmmywwwwwwwwwwwwwwwwwwwwwwwwwwwwwwwwwwwwwwwwwwwwwwwwwwwwwwwwwwwwwwwwwwwwwwwwwwwwwwwwwwwwwwwwwwwwwqimmmmmmmmmmmmmmmmmmm",
"mmmmmmmmmmmmmmwwwwewwwwwwwwwwwwwwwwwwwwwwwwwwwwwwwwwwwwwwwwwwwwwwwwwwwwwewwwwwwwwwwwwwwwwwwwwwwwwwwwwwwwwwqtmmmmmmmmmmmmmmmmmmmm",
"mmmmmmmmmmmmmmseqewwwwwwwwwwwwwwwwwwwwwwwwwwwwwwwwwwwwewwwwwwwwwwwwwwwwwwwwwwwwwwwwwwwwwwwwwwwwwwwwwwwwwwqtmmmmmmmmmmmmmmmmmmmmm",
"mmmmmmmmmmmmmmmpeqwwwwwwwewwwwwwwwwwwwwwwwwwwwwwwwwwwwwwwwwwwwwwwwwwwwwwwwwwewwwwwwwwwwwwwewwwwwwwwwwwwwqtmmmmmmmmmmmmmmmmmmmmmm",
"mmmmmmmmmmmmmmmmmeqwwwwwwwwwwwwwwwwwwewwwwwwwwwwwwwwwwwwwwwwwwwwwwwwwwwwwwwwwwwwwwwwwwwwwwwwwwwwwwwwwwwwymmmmmmmmmmmmmmmmmmmmmmm",
"mmmmmmmmmmmmmmmmmmywwwwwwwwwwwwwwwwwwwwwwwwwwwwwwwwwwwwwwwwwwwwwwwewwwwwwwwwwwwwwwwwwwwwwwwwwwwwwwwewwwimmmmmmmmmmmmmmmmmmmmmmmm",
"mmmmmmmmmm>,mmmmmmmyeqwwwwwwwwwwwwwwwwwwwwwwwwwwwwwwwwwwwwwwwwwwwwwwwwwwwwwwwwwwwwwwwwwwwwwwwwewwwwwweimmmmmmmmmmmmmmmmmmmmmmmmm",
"mmmmmmmmmm>:mmmmmmmmmtwwwwwwwwwwwwwewwwwwwwwwwwwwwwwwwwwwwwwwwwwwwwwwwwwwwwwwwwwwwwwwwwwwwwwwwwwwwqeymmmmmmmmmmmmmmmmmmmmmmmmmmm",
"mmmmmmmmmm=:1mmmmmmmmmirwwwewwwwwwwwwwwwwewwwwwwwwwwwwwwwwwwwwwwwwwwwwwwwwwwwwwwwwwwwwewwwwwwwwwqwrmmmmmmmmmmm3mmmmmmmmmmmmmmmmm",
"mmmmmmmmmm=*:4mmmmmmmmmmurwqwwwwwwwwwwwwwewwwwwwwwwwwwwwwwewwwwwwwwwwwwwwwwwwwwewwwwwwwwwwwwwwqeymmmmmmmmmmmm>*mmmmmmmmmmmmmmmmm",
"mmmmmmmmmm-==><mmmmmmmmmmmmyeqqwwwwwwwwwwwwwwwwwwwwwwwwwwwwwwwwwwwwwwwwwwwwwwwwwwwwwwwwwewwqweymmmmmmmmmmmmm,;:mmmmmmmmmmmmmmmmm",
"mmmmmmmmmm-===>1mmmmmmmmmmmmmitwqqwewwwwwwwwwwwwwwwwwwwwwwwwwwwwwwwwwwwwwwwwwwwwwwwwwwwwqqerpmmmmmmmmmmmmmm,:*>mmmmmmmmmmmmmmmmm",
"mmmmmmmmmm>>**=>,mmmmmmmmmmmmmmmpyeqqqwwwwwwwwwwwwwwwwewwwwewwwwwwwwwwwwwwwwwwwwwwwwqqweypmmmmmmmmmmmmmmm2>>>*3mmmmmmmmmmmmmmmmm",
"mmmmmmmmmm>>****>,<mmmmmmmmmmmmmmmmpiyeqwwqwwwwwwwwwwwwwwwwwwwwwwwwwwwwwwwwwwwwqwqweyipmmmmmmmmmmmmmmmmm<>**::,mmmmmmmmmmmmmmmmm",
"mmmmmmmmmm>;*****=>1mmmmmmmmmmmmmmmmmmmspyrewwwqqqwwwewwwwweewwwwwwewwwwqqqqqweeypsmmmmmmmmmmmmmmmmmmm61>>***:,mmmmmmmmmmmmmmmmm",
"mmmmmmmmmm3*******==,<mmmmmmmmmmmmmmmmmmmmmmsiiitteewqqqqqqqqqqwqwqwweeeetipssmmmmmmmmmmmmmmmmmmmmmmm<>=****==>mmmmmmmmmmmmmmmmm",
"mmmmmmmmmm1*********:>,4mmmmmmmmmmmmmmmmmmmmmmmmmmmdsspsppipiyippppaammmmmmmmmmmmmmmmmmmmmmmmmmmmmm4,>******=*>mmmmmmmmmmmmmmmmm",
"mmmmmmmmmmm**********==>,4mmmmmmmmmmmmmmmmmmmmmmmmmmmmmmmmmmmmmmmmmmmmmmmmmmmmmmmmmmmmmmmmmmmmmmm4,::=******=*>mmmmmmmmmmmmmmmmm",
"mmmmmmmmmmm=************=>,4mmmmmmmmmmmmmmmmmmmmmmmmmmmmmmmmmmmmmmmmmmmmmmmmmmmmmmmmmmmmmmmmmm41>*=*******:>34mmmmmmmmmmmmmmmmmm",
"mmmmmmmmmmm****************=>14mmmmmmmmmmmmmmmmmmmmmmmmmmmmmmmmmmmmmmmmmmmmmmmmmmmmmmmmmmmmm<,>>:********>>4mmmmmmmmmmmmmmmmmmmm",
"mmmmmmmmmmm*****************==:,14mmmmmmmmmmmmmmmmmmmmmmmmmmmmmmmmmmmmmmmmmmmmmmmmmmmmmm44,>>***==******=>4mmmmmmmmmmmmmmmmmmmmm",
"mmmmmmmmmmm*****************=*==>:,146mmmmmmmmmmmmmmmmmmmmmmmmmmmmmmmmmmmmmmmmmmmmmm641,>>==*****=****==><mmmmmmmmmmmmmmmmmmmmmm",
"mmmmmmmmmmm*************************::>1148mmmmmmmmmmmmmmmmmmmmmmmmmmmmmmmmmmmmm641,:*=****************=<mmmmmmmmmmmmmmmmmmmmmmm",
"mmmmmmmmmmm>***************************>:::,344689mmmmmmmmmmmmmmmmmmmmmmm98441,>::********************=1mmmmmmmmmmmmmmmmmmmmmmmm",
"mmmmmmmmmmm1>*******************************>::::>,,,133>,,,,=,>>>,3,1,,>::::=:***********************,mmmmmmmmmyupmmmmmmmmmmmmm",
"mmmmmmmmmmmm,***********************************>:**=:>:***===**>==*:=**:>**************************:>1mmmmmmmteqqqtpmmmmmmmmmmm",
"mmmmmmmmmmmm4:>*********************************************************:=****************************4mmmmmmpqqwwwqemmmmmmmmmmm",
"mmmmmmmmmmmmm1**********************************************************==***************************:4mmmmmmtqwwwewewmmmmmmmmmm",
"mmmmmmmmmmmmmm,>********************************************************=****************************:8mmmmmmeqwwwwwwwmmmmmmmmmm",
"mmmmmmmmmmmmmmm,=************************************************************************************:6mmmmmmewwwwwwwwmmmmmmmmmm",
"mmmmmmmmmmmmmmmm,===*********************************************************************************:2mmmmmmewwwwwwwwmmmmmmmmmm",
"mmmmmmmmmmmmmmmmm,>=*********************************************************************************:5mmmmmmewwwwwwwwmmmmmmmmmm",
"mmmmmmmmmmmmmmmmmm1>=*****************************************************************************==::<mmmmmmwwwwwwwwwmmmmmmmmmm",
"mmmmmmmmmm+@mmmmmmm2,=****************************************************************************==:>mmmmmmmwwwwwwweqmmmmmmmmmm",
"mmmmmmmmmm+Ommmmmmmmm<>==*************************************************************************>>4mmmmmmmmeewwwwwwemmmmmmmmmm",
"mmmmmmmmmmO .mmmmmmmmmm1>=**********************************************************************>>1mmmmmmmmmmwwwwwwwqwmmmmmmmmmm",
"mmmmmmmmmm....mmmmmmmmmmm1>>=***************************************************************:>>,1mmmmmmmmmmmmwqwwwwwwemmmmmmmmmm",
"mmmmmmmmmm+....mmmmmmmmmmmm4,:=************************************************************>:,<mmmmmmmmmmmmmmewwwwwwwemmmmmmmmmm",
"mmmmmmmmmmmO....mmmmmmmmmmmmm6<,:>:***************************************************=:=:,14mmmmmmmmmmmmmmmmqwwwwwwwwmmmmmmmmmm",
"mmmmmmmmmmm.....Xmmmmmmmmmmmmmmm4<,::*******==**********************************==***:>344mmmmmmmmmmmmmmmmmmmewwwwwwwwmmmmmmmmmm",
"mmmmmmmmmmm......X@mmmmmmmmmmmmmmmm641,::>=*:=*******************************>*=:::,348mmmmmmmmmmmmmmmmmmmmmmewwwwwwwemmmmmmmmmm",
"mmmmmmmmmmm.......X@mmmmmmmmmmmmmmmmmmm843,,::::***********************=***:::33448mmmmmmmmmmmmmmmmmmmmmmmmmmewwwwwewemmmmmmmmmm",
"mmmmmmmmmmm..........@mmmmmmmmmmmmmmmmmmmmmm8444133>>::::::*;;;;;::::>>,314448mmmmmmmmmmmmmmmmmmmmmmmmmmmmmmmewwwwwwwemmmmmmmmmm",
"mmmmmmmmmmm...........X@mmmmmmmmmmmmmmmmmmmmmmmmmmmm888877652146746880mmmmmmmmmmmmmmmmmmmmmmmmmmmmmmmmmmmmmmmwwwwwwwwemmmmmmmmmm",
"mmmmmmmmmmm............X.@mmmmmmmmmmmmmmmmmmmmmmmmmmmmmmmmmmmmmmmmmmmmmmmmmmmmmmmmmmmmmmmmmmmmmmmmmmmmmmmmmmmwwwwwwwwwmmmmmmmmmm",
"mmmmmmmmmmm..............XXXmmmmmmmmmmmmmmmmmmmmmmmmmmmmmmmmmmmmmmmmmmmmmmmmmmmmmmmmmmmmmmmmmmmmmmmmmmmmmmmmmwwwwwwwwemmmmmmmmmm",
"mmmmmmmmmmm.................XXXmmmmmmmmmmmmmmmmmmmmmmmmmmmmmmmmmmmmmmmmmmmmmmmmmmmmmmmsppttttttppsmmmmmmmmmmmwwwwwwwwwmmmmmmmmmm",
"mmmmmmmmmmm.....................+@mmmmmmmmmmmmmmmmmmmmmmmmmmmmmmmmmmmmmmmmmmmmmmmmmpitewqqqqqqqqqweypmmmmmmmpwwwwwwwwwmmmmmmmmmm",
"mmmmmmmmmmm.......................XX+@mmmmmmmmmmmmmmmmmmmmmmmmmmmmmmmmmmmmmmmmmmmieqqqwwwwwwwwwwwwwqqeypmmmmpwwwwewwwemmmmmmmmmm",
"mmmmmmmmmmm............................+++#mmmmmmmmmmmmmmmmmmmmmmmmmmmmmmmmmmmmpewqwwwwwwwwwwwwwwwwwewqeymmmswwwwwwwwemmmmmmmmmm",
"mmmmmmmmmmm...................................++X#&mmmmmmmmmmmmmmmmmmmmmmmmmmmtqwwwwwwwwwwwwwwwwwwwwwwwwqeimfewwwwwwwwmmmmmmmmmm",
"mmmmmmmmmmm...................................    . O.OOO@+++$@. ommmmmmmmmmpeqwwwwewwwwwwwwewwwwwwwwwwewwqryewwwwwwwwmmmmmmmmmm",
"mmmmmmmmmmmm+....................................... ...      .. +mmmmmmmmmpwqwwwwwwwwwwwwwwwwwwwwwwwwwwwwwewwwwwwqwwemmmmmmmmmm",
"mmmmmmmmmmmm@X..................................................ommmmmmmmmiwwwwwwwwwwwwwwwwwwwwwwewwwwwwwwwwwwwewwwwwemmmmmmmmmm",
"mmmmmmmmmmmmmO..................................................@mmmmmmmmiqwwwwwwewwwewwqqwwwqqqqwwwwwwwwwewwwwwwwwwwemmmmmmmmmm",
"mmmmmmmmmmmmmmX................................................Ommmmmmmmpwwwwwwwwwwwwqweyppsssspyeqqwwwwwwwwwwwwwwewqemmmmmmmmmm",
"mmmmmmmmmmmmmm@................................................$mmmmmmmpwwwwwwwwwwwqeypmmmmmmmmmmmirwwwwwwwwwwwwwwwwwemmmmmmmmmm",
"mmmmmmmmmmmmmmm@X..............................................mmmmmmmmeqwwwewwwwwwypmmmmmmmmmmmmmmmpeqwwwwwwwwwwwwwwemmmmmmmmmm",
"mmmmmmmmmmmmmmmmmX...........................................X#mmmmmmmtqewwwwwewweimmmmmmmmmmmmmmmmmmmywqwwwwwwwwwwwwemmmmmmmmmm",
"mmmmmmmmmmmmmmmmmmX...........................................mmmmmmmywwwwwwwwwwrpmmmmmmmmmmmmmmmmmmmmmiewwwwwwwwwwwqemmmmmmmmmm",
"mmmmmmmmmmxmmmmmmmm+X.......................................X+mmmmmmmewwwwwwwweemmmmmmmmmmmmmmmmmmmmmmmmuwwwwwwwwwwwqemmmmmmmmmm",
"mmmmmmmmmmxlmmmmmmmmmXX..................................... mmmmmmmiqwwwwwwwwwpmmmmmmmmmmmmmmmmmmmmmmmmmuqqewwwwwwwqemmmmmmmmmm",
"mmmmmmmmmmvlkmmmmmmmmm@X.X..................................Ommmmmmmrwwwwwwwwwimmmmmmmmmmmmmmmmmmmmmmmmmmmtwwwwwwwwwqemmmmmmmmmm",
"mmmmmmmmmmckkkmmmmmmmmmmXXX................................ #mmmmmmmwwwwwwwwqrmmmmmmmmmmmmmmmmmmmmmmmmmmmmpewwwewwwwqwmmmmmmmmmm",
"mmmmmmmmmmckkkkmmmmmmmmmmm$X............................... &mmmmmmiqwwwwwwewpmmmmmmmmmmmmmmmmmmmmmmmmmmmmmtqwwwwwwwwemmmmmmmmmm",
"mmmmmmmmmmzlkkkkmmmmmmmmmmmmmX.  ..........................Ommmmmmmyqwwewwwqrmmmmmmmmmmmmmmmmmmmmmmmmmmmmmmpwwwwwwwweemmmmmmmmmm",
"mmmmmmmmmmzzkkkkkmmmmmmmmmmmmmmm++  .......................Ommmmmmmewwewwwwqpmmmmmmmmmmmmmmmmmmmmmmmmmmmmmmmtwwwwwwwwqmmmmmmmmmm",
"mmmmmmmmmmzzkkkkkkmmmmmmmmmmmmmmmmm@+OO ...................Ommmmmmmwwwwwwwwwsmmmmmmmmmmmmmmmmmmmmmmmmmmmmmmmiqwwwwwwwwmmmmmmmmmm",
"mmmmmmmmmmllkkkkkkkkmmmmmmmmmmmmmmmmmmm++OO  ........... . Ommmmmmdwwwwwwwqtmmmmmmmmmmmmmmmmmmmmmmmmmmmmmmmmpqewwwwwewmmmmmmmmmm",
"mmmmmmmmmmxlkkkkkkkkkkmmmmmmmmmmmmmmmmmmmmmm+++++X.        ommmmmmdqwwwwwwqimmmmmmmmmmmmmmmmmmmmmmmmmmmmmmmmdwwwewwwwwmmmmmmmmmm",
"mmmmmmmmmmmlkkkkkkkkkkkkmmmmmmmmmmmmmmmmmmmmmmmmmmm##%#&&&&mmmmmmmdqwwwwwwqpmmmmmmmmmmmmmmmmmmmmmmmmmmmmmmmmheqwwwwwwwmmmmmmmmmm",
"mmmmmmmmmmmkkkkkkkkkkkkkkkmmmmmmmmmmmmmmmmmmmmmmmmmmmmmmmmmmmmmmmmdqwwwwwwqpmmmmmmmmmmmmmmmmmmmmmmmmmmmmmmmmmeqwwwwwwwmmmmmmmmmm",
"mmmmmmmmmmmkkkkkkkkkkkkkkkkkmmmmmmmmmmmmmmmmmmmmmmmmmmmmmmmmmmmmmmdqwwwwwwqpmmmmmmmmmmmmmmmmmmmmmmmmmmmmmmmmjtqwwwwwwwmmmmmmmmmm",
"mmmmmmmmmmmkkkkkkkkkkkkkkkkkkkkmmmmmmmmmmmmmmmmmmmmmmmmmmmmmmmmmmmdqwwwwweqummmmmmmmmmmmmmmmmmmmmmmmmmmmmmmmgwqwwwwwwwmmmmmmmmmm",
"mmmmmmmmmmmkkkkkkkkkkkkkkkkkkkkkkkmmmmmmmmmmmmmmmmmmmmmmmmmmmmmmmmsqwwwwwwqymmmmmmmmmmmmmmmmmmmmmmmmmmmmmmmmdewwwwwwwwmmmmmmmmmm",
"mmmmmmmmmmmkkkkkkkkkkkkkkkkkkkkkkkkkkmmmmmmmmmmmmmmmmmmmmmmmmmmmmmdqwwwwwwqemmmmmmmmmmmmmmmmmmmmmmmmmmmmmmmmpqwwwwwwewmmmmmmmmmm",
"mmmmmmmmmmmkkkkkkkkkkkkkkkkkkkkkkkkkkkkkkkmmmmmmmmmmmmmmmmmmmmmmmmmwwwwwwwwwsmmmmmmmmmmmmmmmmmmmmmmmmmmmmmmmrqwwwwwwwmmmmmmmmmmm",
"mmmmmmmmmmmkkkkkkkkkkkkkkkkkkkkkkkkkkkkkkkkkkkkkkmmmmmmmmmmmmmmmmmmeqwwwwwwqpmmmmmmmmmmmmmmmmmmmmmmmmmmmmmmmeewwwwwwemmmmmmmmmmm",
"mmmmmmmmmmmmkkkkkkkkkkkkkkkkkkkkkkkkkkkkkkkkkkkkkkkkkkkkkkkmmmmmmmmuqwwwwwweemmmmmmmmmmmmmmmmmmmmmmmmmmmmmmpwwwwwwwwemmmmmmmmmmm",
"mmmmmmmmmmmmkkkkkkkkkkkkkkkkkkkkkkkkkkkkkkkkkkkkkkkkkkkkkkkkmmmmmmmpwwwwwwwwqimmmmmmmmmmmmmmmmmmmmmmmmmmmmmtwwwwwwwermmmmmmmmmmm",
"mmmmmmmmmmmmkkkkkkkkkkkkkkkkkkkkkkkkkkkkkkkkkkkkkkkkkkkkkkkkkmmmmmmmeewwwwwwetmmmmmmmmmmmmmmmmmmmmmmmmmmmmiqwwwwwwwqimmmmmmmmmmm",
"mmmmmmmmmmmmmkkkkkkkkkkkkkkkkkkkkkkkkkkkkkkkkkkkkkkkkkkkkkkkkmmmmmmmuqwwwwwwwqymmmmmmmmmmmmmmmmmmmmmmmmmmmewwwwwwwwesmmmmmmmmmmm",
"mmmmmmmmmmmmmmkkkkkkkkkkkkkkkkkkkkkkkkkkkkkkkkkkkkkkkkkkkkkkkmmmmmmmpwewwwwwewwummmmmmmmmmmmmmmmmmmmmmmmmrqwwwwwwwqymmmmmmmmmmmm",
"mmmmmmmmmmmmmmmkkkkkkkkkkkkkkkkkkkkkkkkkkkkkkkkkkkkkkkkkkkkkkkmmmmmmmyqwwwwwwwwwpmmmmmmmmmmmmmmmmmmmmmmmyqwwwwwwwwwimmmmmmmmmmmm",
"mmmmmmmmmmmmmmmmkkkkkkkkkkkkkkkkkkkkkkkkkkkkkkkkkkkkkkkkkkkkkkmmmmmmmpwwwwwwwwweeimmmmmmmmmmmmmmmmmmmmmrwwwwwwwwwqemmmmmmmmmmmmm",
"mmmmmmmmmmmmmmmmmkkkkkkkkkkkkkkkkkkkkkkkkkkkkkkkkkkkkkkkkkkkkkmmmmmmmmyqwwwwwwwwwwymmmmmmmmmmmmmmmmmmprqwwwwewwwwemmmmmmmmmmmmmm",
"mmmmmmmmmmmmmmmmmmkkkkkkkkkkkkkkkkkkkkkkkkkkkkkkkkkkkkkkkkkkkkkmmmmmmmmtqwwwwwwwwwwrimmmmmmmmmmmmmmmyewwwwwwwwwewymmmmmmmmmmmmmm",
"mmmmmmmmmmmmmmmmmmmmkkkkkkkkkkkkkkkkkkkkkkkkkkkkkkkkkkkkkkkkkkkmmmmmmmmpewwwwwwwwwwwqrpmmmmmmmmmmsyeqwwwwwwwwwwqymmmmmmmmmmmmmmm",
"mmmmmmmmmmmmmmmmmmmmmkkkkkkkkkkkkkkkkkkkkkkkkkkkkkkkkkkkkkkkkkkkmmmmmmmmiwewwwwwwwwweqqeyipppputewqwwwwwwewwwwqrmmmmmmmmmmmmmmmm",
"mmmmmmmmmmmmmmmmmmmmmmmkkkkkkkkkkkkkkkkkkkkkkkkkkkkkkkkkkkkkkkkklmmmmmmmmiqewwwwwwwwwwwwqqqqqqqqewwwwwwwwwwweqemmmmmmmmmmmmmmmmm",
"mmmmmmmmmmmmmmmmmmmmmmmmmkkkkkkkkkkkkkkkkkkkkkkkkkkkkkkkkkkkkkkkkmmmmmmmmmiwwwwwwwwwwwwwwwwwwwwwwwwwwwwwwwwwqtmmmmmmmmmmmmmmmmmm",
"mmmmmmmmmmmmmmmmmmmmmmmmmmmkkkkkkkkkkkkkkkkkkkkkkkkkkkkkkkkkkkkkklmmmmmmmmmpwqwwwwwwwwwwwwwwwwwwwwwwwwewwewqymmmmmmmmmmmmmmmmmmm",
"mmmmmmmmmmmmmmmmmmmmmmmmmmmmmkkkkkkkkkkkkkkkkkkkkkkkkkkkkkkkkkkkkkkmmmmmmmmmptqewwwwwwwwwwwwwwwwwwwwwwwwwqwimmmmmmmmmmmmmmmmmmmm",
"mmmmmmmmmmmmmmmmmmmmmmmmmmmmmmmmkkkkkkkkkkkkkkkkkkkkkkkkkkkkkkkkkkklmmmmmmmmmmuwqewwwwwewwwwwwwewwwwwwwwqepmmmmmmmmmmmmmmmmmmmmm",
"mmmmmmmmmmmmmmmmmmmmmmmmmmmmmmmmmmmkkkkkkkkkkkkkkkkkkkkkkkkkkkkkkkkkmmmmmmmmmmmprwqwwwwwwwwwwwwwwwwwwwqwymmmmmmmmmmmmmmmmmmmmmmm",
"mmmmmmmmmmmmmmmmmmmmmmmmmmmmmmmmmmmmmmmmkkkkkkkkkkkkkkkkkkkkkkkkkkkkkmmmmmmmmmmmmprwqewwwwwwwwwwwwwwweymmmmmmmmmmmmmmmmmmmmmmmmm",
"mmmmmmmmmmmmmmmmmmmmmmmmmmmmmmmmmmmmmmmmmmmmmkkkkkkkkkkkkklkkkllllkklkmmmmmmmmmmmmmmyreewwwwwwwwwerrymmmmmmmmmmmmmmmmmmmmmmmmmmm",
"mmmmmmmmmmmmmmmmmmmmmmmmmmmmmmmmmmmmmmmmmmmmmmmmmmmmmkkklznnnvvvbzlklmmmmmmmmmmmmmmmmmmmwwriirewmmmmmmmmmmmmmmmmmmmmmmmmmmmmmmmm"
};
