/* XPM */
static char *bitcoin16[] = {
/* columns rows colors chars-per-pixel */
"16 16 98 2 ",
"   c #FF2B3E",
".  c #FF3636",
"X  c #F63C34",
"o  c #FF3C33",
"O  c #FF3E33",
"+  c #FF3B34",
"@  c #F4373B",
"#  c #FF4626",
"$  c #FC462A",
"%  c #F9442F",
"&  c #FD442D",
"*  c #EF4B36",
"=  c #F54233",
"-  c #FE4231",
";  c #FF4032",
":  c #FF4238",
">  c #DE5445",
",  c #0BAD66",
"<  c #04AD6A",
"1  c #05AD6B",
"2  c #01AE6E",
"3  c #02AE6F",
"4  c #04AD6C",
"5  c #09AD68",
"6  c #09AD69",
"7  c #0BAD68",
"8  c #0AAD69",
"9  c #0BAD69",
"0  c #0AAF6F",
"q  c #07B667",
"w  c #09B766",
"e  c #05B866",
"r  c #06BB66",
"t  c #01BF67",
"y  c #05BC67",
"u  c #0FB06E",
"i  c #18B865",
"p  c #00AE71",
"a  c #00AF72",
"s  c #00AE73",
"d  c #00AE74",
"f  c #22B165",
"g  c #2EB265",
"h  c #25B268",
"j  c #00C269",
"k  c #D2BE22",
"l  c #FFC300",
"z  c #FFC301",
"x  c #FFC302",
"c  c #FFC400",
"v  c #FFC304",
"b  c #FFC305",
"n  c #FFC306",
"m  c #FEC307",
"M  c #FFC307",
"N  c #FFC404",
"B  c #FACE04",
"V  c #F7C408",
"C  c #F0C30E",
"Z  c #F0C30F",
"A  c #F7C30E",
"S  c #F0C40C",
"D  c #FFC209",
"F  c #FFC10B",
"G  c #FFC409",
"H  c #FAC30E",
"J  c #FBC30E",
"K  c #FFC10E",
"L  c #FCC30E",
"P  c #FFC20F",
"I  c #FDC50C",
"U  c #FFC40C",
"Y  c #F0CE0C",
"T  c #FFD200",
"R  c #FFD300",
"E  c #FAD007",
"W  c #FFDB00",
"Q  c #FEDD00",
"!  c #F0C310",
"~  c #F0C410",
"^  c #F0C411",
"/  c #F0C412",
"(  c #F0C413",
")  c #F0C414",
"_  c #FCC412",
"`  c #675BBB",
"'  c #6F67AE",
"]  c #7867A5",
"[  c #7067AD",
"{  c #6766B5",
"}  c #6867B4",
"|  c #6A67B4",
" . c #6768B6",
".. c #6466B8",
"X. c #6467B8",
"o. c #6366BC",
"O. c #5D58C4",
"+. c None",
/* pixels */
"+.+.+.+.~ Z Z Z Z ! / ) +.+.+.+.",
"+.+.Z Z C C C C C C C Z ~ +.+.+.",
"+.+.C C C C C C C C C C C ^ +.+.",
"+.+.n H C C C C C C C A n N +.+.",
"+.+.F l v M L J L m b z v +.+.+.",
"+.+.f +.K v z l l x D +.+.+.+.+.",
"+.q < 2 0 h +.+.+.g u p d +.+.+.",
"+.+.y e , 7 8 6 8 9 9 1 s +.c +.",
"+.+.+.i j t r w 5 4 3 a +.+.G +.",
"+.; o : +.+.+.+.+.+.k P +.U / +.",
"+.+.& - O + .   +.R N G _ ^ / +.",
"+.+.> # $ % X @ I E +.+.+.^ ^ +.",
"+. .{ +.+.* = +.Q Y +.+.+.+.~ +.",
"+.+.' } X...o.+.W B +.+.+.( ^ +.",
"+.+.] ] ] [ | O.+.T S +.( / +.+.",
"+.+.+.+.] ] ] ` +.+.V ^ ^ +.+.+."
};
