/* XPM */
static char *bitcoin64[] = {
/* columns rows colors chars-per-pixel */
"64 64 181 2 ",
"   c #E6463D",
".  c #EC463D",
"X  c #E5493E",
"o  c #E5493F",
"O  c #E6493E",
"+  c #E64A3E",
"@  c #E54D3D",
"#  c #E64C3C",
"$  c #E64D3C",
"%  c #E64C3D",
"&  c #E64D3D",
"*  c #E54E3D",
"=  c #E64E3D",
"-  c #E64F3D",
";  c #E54F3E",
":  c #E64E3E",
">  c #E64F3E",
",  c #E5503E",
"<  c #E5513E",
"1  c #E5503F",
"2  c #E6503E",
"3  c #E6513E",
"4  c #E5523F",
"5  c #E5533F",
"6  c #EC543F",
"7  c #F15234",
"8  c #E54740",
"9  c #E54A41",
"0  c #E54C40",
"q  c #E54D40",
"w  c #E54E41",
"e  c #E54F41",
"r  c #ED4C41",
"t  c #EC4E40",
"y  c #E65040",
"u  c #E55440",
"i  c #E55541",
"p  c #ED5242",
"a  c #ED5642",
"s  c #EC5743",
"d  c #24AC5F",
"f  c #27AD5F",
"g  c #28AD5F",
"h  c #21AD60",
"j  c #22AD60",
"k  c #22AD61",
"l  c #23AD61",
"z  c #21AD62",
"x  c #22AE63",
"c  c #24AC61",
"v  c #24AD61",
"b  c #25AD61",
"n  c #25AD62",
"m  c #24AD63",
"M  c #24AE62",
"N  c #25AE62",
"B  c #25AE63",
"V  c #26AE63",
"C  c #27AE63",
"Z  c #23AE64",
"A  c #23AE65",
"S  c #25AE64",
"D  c #24AE65",
"F  c #26AE64",
"G  c #27AE64",
"H  c #26AF66",
"J  c #27AF66",
"K  c #28AD60",
"L  c #29AD60",
"P  c #2AAD60",
"I  c #2BAD60",
"U  c #2AAD61",
"Y  c #2BAD61",
"T  c #2BAE61",
"R  c #2BAE62",
"E  c #2BAF63",
"W  c #2CAC60",
"Q  c #2FAD61",
"!  c #2FAE60",
"~  c #2CAE62",
"^  c #2DAE62",
"/  c #2DAE63",
"(  c #28AE64",
")  c #29AE64",
"_  c #29AF64",
"`  c #28AE65",
"'  c #29AE65",
"]  c #2BAF64",
"[  c #2AAF65",
"{  c #2BAF65",
"}  c #29AF66",
"|  c #2AAF66",
" . c #2BAF66",
".. c #2AAF67",
"X. c #2BAF67",
"o. c #2CAF64",
"O. c #2CAF65",
"+. c #2CAF66",
"@. c #2DAE67",
"#. c #30AE64",
"$. c #32AF66",
"%. c #33AF66",
"&. c #34AF67",
"*. c #2AB068",
"=. c #2CB068",
"-. c #2CB069",
";. c #2EB068",
":. c #32B06C",
">. c #F0C308",
",. c #F0C309",
"<. c #F0C409",
"1. c #F0C40A",
"2. c #F0C40B",
"3. c #F0C30E",
"4. c #F0C30F",
"5. c #F0C40C",
"6. c #F0C40D",
"7. c #F0C50D",
"8. c #F0C40E",
"9. c #F0C50E",
"0. c #F0C50F",
"q. c #F0C310",
"w. c #F0C410",
"e. c #F0C510",
"r. c #F1C510",
"t. c #F0C411",
"y. c #F0C511",
"u. c #F1C610",
"i. c #F1C611",
"p. c #F0C412",
"a. c #F0C413",
"s. c #F1C612",
"d. c #F1C613",
"f. c #F1C713",
"g. c #F7C511",
"h. c #F0C414",
"j. c #F0C514",
"k. c #F0C515",
"l. c #F1C614",
"z. c #F1C714",
"x. c #F1C615",
"c. c #F0C516",
"v. c #F0C517",
"b. c #F1C616",
"n. c #F1C717",
"m. c #F8C510",
"M. c #F9C611",
"N. c #FBC612",
"B. c #FAC614",
"V. c #FBC614",
"C. c #FCC716",
"Z. c #FFC716",
"A. c #F0C518",
"S. c #F1C518",
"D. c #F1C519",
"F. c #F1C718",
"G. c #F1C619",
"H. c #F1C719",
"J. c #F1C61A",
"K. c #F1C61B",
"L. c #F1C61C",
"P. c #F1C61D",
"I. c #F1C71D",
"U. c #F1C71E",
"Y. c #F1C71F",
"T. c #FDC81A",
"R. c #F1C720",
"E. c #F1C926",
"W. c #7867A5",
"Q. c #7968A5",
"!. c #7B6BA4",
"~. c #7A6AA5",
"^. c #7A69A6",
"/. c #7C6BA5",
"(. c #7C6CA5",
"). c #7C6CA6",
"_. c #7D6DA6",
"`. c #7C6CA7",
"'. c #7E6EA6",
"]. c #7067AC",
"[. c None",
/* pixels */
"[.[.[.[.[.[.[.[.[.[.[.[.[.[.[.[.[.[.[.[.[.[.[.h.t.4.3.3.a.k.k.c.a.4.3.p.A.J.[.[.[.[.[.[.[.[.[.[.[.[.[.[.[.[.[.[.[.[.[.[.[.[.[.[.",
"[.[.[.[.[.[.[.[.[.[.[.[.[.[.[.[.[.[.[.c.h.t.q.4.4.3.3.3.3.3.3.3.3.3.3.4.4.w.t.a.c.J.Y.[.[.[.[.[.[.[.[.[.[.[.[.[.[.[.[.[.[.[.[.[.",
"[.[.[.[.[.[.[.[.[.[.[.[.[.[.[.S.k.p.q.4.3.3.3.3.3.3.3.3.3.3.3.3.3.3.3.3.3.3.3.3.3.4.t.h.D.Y.[.[.[.[.[.[.[.[.[.[.[.[.[.[.[.[.[.[.",
"[.[.[.[.[.[.[.[.[.[.[.[.[.h.t.q.4.3.3.3.3.3.3.3.3.3.3.3.3.3.3.3.3.3.3.3.3.3.3.3.3.3.3.3.4.t.j.J.[.[.[.[.[.[.[.[.[.[.[.[.[.[.[.[.",
"[.[.[.[.[.[.[.[.[.[.[.t.q.4.3.3.3.3.3.3.3.3.3.3.3.3.3.3.3.3.3.3.3.3.3.3.3.3.3.3.3.3.3.3.3.3.3.4.p.A.[.[.[.[.[.[.[.[.[.[.[.[.[.[.",
"[.[.[.[.[.[.[.[.[.p.4.3.3.3.3.3.3.3.3.3.3.3.3.3.3.3.3.3.3.3.3.3.3.3.3.3.3.3.3.3.3.3.3.3.3.3.3.3.3.4.a.J.[.[.[.[.[.[.[.[.[.[.[.[.",
"[.[.[.[.[.[.[.[.p.4.3.3.3.3.3.3.3.3.3.3.3.3.3.3.3.3.3.3.3.3.3.3.3.3.3.3.3.3.3.3.3.3.3.3.3.3.3.3.3.3.3.t.J.[.[.[.[.[.[.[.[.[.[.[.",
"[.[.[.[.[.[.[.a.4.3.3.3.3.3.3.3.3.3.3.3.3.3.3.3.3.3.3.3.3.3.3.3.3.3.3.3.3.3.3.3.3.3.3.3.3.3.3.3.3.3.3.3.t.K.[.[.[.[.[.[.[.[.[.[.",
"[.[.[.[.[.[.p.4.3.3.3.3.3.3.3.3.3.3.3.3.3.3.3.3.3.3.3.3.3.3.3.3.3.3.3.3.3.3.3.3.3.3.3.3.3.3.3.3.3.3.3.3.3.t.L.[.[.[.[.[.[.[.[.[.",
"[.[.[.[.[.[.4.3.3.3.3.3.3.3.3.3.3.3.3.3.3.3.3.3.3.3.3.3.3.3.3.3.3.3.3.3.3.3.3.3.3.3.3.3.3.3.3.3.3.3.3.3.3.3.8.[.[.[.[.[.[.[.[.[.",
"[.[.[.[.[.[.3.3.3.3.3.3.3.3.3.3.3.3.3.3.3.3.3.3.3.3.3.3.3.3.3.3.3.3.3.3.3.3.3.3.3.3.3.3.3.3.3.3.3.3.3.3.3.3.2.[.[.[.[.[.[.[.[.[.",
"[.[.[.[.[.[.3.3.3.3.3.3.3.3.3.3.3.3.3.3.3.3.3.3.3.3.3.3.3.3.3.3.3.3.3.3.3.3.3.3.3.3.3.3.3.3.3.3.3.3.3.3.3.3.1.H.[.[.[.[.[.[.[.[.",
"[.[.[.[.[.[.3.3.3.3.3.3.3.3.3.3.3.3.3.3.3.3.3.3.3.3.3.3.3.3.3.3.3.3.3.3.3.3.3.3.3.3.3.3.3.3.3.3.3.3.3.3.3.3.1.n.[.[.[.[.[.[.[.[.",
"[.[.[.[.[.[.q.3.3.3.3.3.3.3.3.3.3.3.3.3.3.3.3.3.3.3.3.3.3.3.3.3.3.3.3.3.3.3.3.3.3.3.3.3.3.3.3.3.3.3.3.3.3.3.5.[.[.[.[.[.[.[.[.[.",
"[.[.[.[.[.[.c.4.3.3.3.3.3.3.3.3.3.3.3.3.3.3.3.3.3.3.3.3.3.3.3.3.3.3.3.3.3.3.3.3.3.3.3.3.3.3.3.3.3.3.3.3.3.4.s.[.[.[.[.[.[.[.[.[.",
"[.[.[.[.[.[.[.8.4.3.3.3.3.3.3.3.3.3.3.3.3.3.3.3.3.3.3.3.3.3.3.3.3.3.3.3.3.3.3.3.3.3.3.3.3.3.3.3.3.3.3.3.4.0.[.[.[.[.[.[.[.[.[.[.",
"[.[.[.[.[.[.[.Z.5.4.3.3.3.3.3.3.3.3.3.3.3.3.3.3.3.3.3.3.3.3.3.3.3.3.3.3.3.3.3.3.3.3.3.3.3.3.3.3.3.3.3.4.9.[.[.[.[.[.[.[.[.[.[.[.",
"[.[.[.[.[.[.[.[.[.6.4.3.3.3.3.3.3.3.3.3.3.3.3.3.3.3.3.3.3.3.3.3.3.3.3.3.3.3.3.3.3.3.3.3.3.3.3.3.3.3.q.0.[.[.[.[.[.[.[.[.[.[.[.[.",
"[.[.[.[.[.[.[.[.[.[.m.t.4.3.3.3.3.3.3.3.3.3.3.3.3.3.3.3.3.3.3.3.3.3.3.3.3.3.3.3.3.3.3.3.3.3.3.3.4.p.g.[.[.[.[.[.[.[.[.[.[.[.[.[.",
"[.[.[.[.[.c A [.[.[.[.[.c.p.4.3.3.3.3.3.3.3.3.3.3.3.3.3.3.3.3.3.3.3.3.3.3.3.3.3.3.3.3.3.3.3.q.a.A.[.[.[.[.[.[.:.[.[.[.[.[.[.[.[.",
"[.[.[.[.[.d k S [.[.[.[.[.[.D.j.t.q.4.3.3.3.3.3.3.3.3.3.3.3.3.3.3.3.3.3.3.3.3.3.3.3.4.q.p.k.J.[.[.[.[.[.[.[.z @.[.[.[.[.[.[.[.[.",
"[.[.[.[.[.W g L m [.[.[.[.[.[.[.[.x.v.j.p.w.4.4.3.3.3.3.3.3.3.3.3.3.3.3.3.4.4.w.5.8.v.x.[.[.[.[.[.[.[.[.` v h %.[.[.[.[.[.[.[.[.",
"[.[.[.[.[.! g f K b [.[.[.[.[.[.[.[.[.[.[.F.b.d.y.0.7.5.5.p.p.p.p.a.a.8.e.d.x.F.[.[.[.[.[.[.[.[.[.[.[.( P f K $.[.[.[.[.[.[.[.[.",
"[.[.[.[.[.Q g f f f P V [.[.[.[.[.[.[.[.[.[.[.[.[.[.[.[.[.[.[.[.[.[.[.[.[.[.[.[.[.[.[.[.[.[.[.[.[.[ R K f g l } [.[.[.[.[.[.[.[.",
"[.[.[.[.[.j f f f f f g P C } [.[.[.[.[.[.[.[.[.[.[.[.[.[.[.[.[.[.[.[.[.[.[.[.[.[.[.[.[.[.[.| ( T K f f K C ..[.[.[.[.[.[.[.[.[.",
"[.[.[.[.[.f f f f f f f f f L ~ ( X.[.[.[.[.[.[.[.[.[.[.[.[.[.[.[.[.[.[.[.[.[.[.[.[.[.} ( ~ P g f f f g M [.[.[.[.[.[.[.[.[.[.[.",
"[.[.[.[.[.[.g f f f f f f f f f g L T / _  .=.[.[.[.[.[.[.[.[.[.[.[.[.[.[.[.-.X._ / T L g f f f f f f b [.[.[.[.[.[.[.[.[.[.[.[.",
"[.[.[.[.[.[.T f f f f f f f f f f f f f g K P T ^ / / ~ Y Y I I Y ~ ^ / ^ R U K g f f f f f f f f f L | [.[.[.[.u.n.[.[.[.[.[.[.",
"[.[.[.[.[.[.' L f f f f f f f f f f f f f f f f f f f f f f f f f f f f f f f f f f f f f f f f f f T [.[.[.[.<.>.w.a.[.[.[.[.[.",
"[.[.[.[.[.[.[.x L f f f f f f f f f f f f f f f f f f f f f f f f f f f f f f f f f f f f f f f f f T [.[.[.C.1.3.3.3.[.[.[.[.[.",
"[.[.[.[.[.[.[.[.Z P f f f f f f f f f f f f f f f f f f f f f f f f f f f f f f f f f f f f f f f f v [.[.[.V.q.3.3.3.[.[.[.[.[.",
"[.[.[.[.[.[.[.[.[.D v g f f f f f f f f f f f f f f f f f f f f f f f f f f f f f f f f f f f f f K n [.[.[.N.4.3.3.q.[.[.[.[.[.",
"[.[.[.[.[.r [.[.[.[.[.B U K f f f f f f f f f f f f f f f f f f f f f f f f f f f f f f f f f K Y #.[.[.[.[.M.4.3.3.a.[.[.[.[.[.",
"[.[.[.[.[.y . [.[.[.[.[.[.G ~ L g f f f f f f f f f f f f f f f f f f f f f f f f f f f g L ~ #.[.[.[.[.[.[.s.4.3.3.h.[.[.[.[.[.",
"[.[.[.[.[.: # @ [.[.[.[.[.[.[.} ( ~ U K g f f f f f f f f f f f f f f f f f f f g K U N F J [.[.[.[.[.[.[.[.L.4.3.3.h.[.[.[.[.[.",
"[.[.[.[.[.% # # * 6 [.[.[.[.[.[.[.[.[.| ) ^ R U L K K K g g g g g g K K L U R V F H [.[.[.[.[.[.[.[.[.[.[.[.P.q.3.3.h.[.[.[.[.[.",
"[.[.[.[.[.# # # # & < [.[.[.[.[.[.[.[.[.[.[.[.[.*... .{ ] ] E o.O.{ +.&.;.[.[.[.[.[.[.[.[.[.[.[.[.[.[.[.[.[.L.4.3.3.h.[.[.[.[.[.",
"[.[.[.[.[.# # # # # % = < t [.[.[.[.[.[.[.[.[.[.[.[.[.[.[.[.[.[.[.[.[.[.[.[.[.[.[.[.[.[.[.[.[.[.[.[.[.[.[.[.K.4.3.3.h.[.[.[.[.[.",
"[.[.[.[.[.# # # # # # # # & ; 4 [.[.[.[.[.[.[.[.[.[.[.[.[.[.[.[.[.[.[.[.[.[.[.[.[.[.T.B.i.r.r.s.x.Y.[.[.[.[.J.4.3.3.h.[.[.[.[.[.",
"[.[.[.[.[.# # # # # # # # # # $ & > 1 0 [.[.[.[.[.[.[.[.[.[.[.[.[.[.[.[.[.[.[.[.s.7.2.4.4.3.3.4.4.t.h.J.[.[.L.4.3.3.j.[.[.[.[.[.",
"[.[.[.[.[.[.$ # # # # # # # # # # # # $ = > 1 4 q w e p a s [.[.[.[.[.[.[.[.Y.j.q.3.3.3.3.3.3.3.3.3.3.4.a.I.J.4.3.3.j.[.[.[.[.[.",
"[.[.[.[.[.[.< % # # # # # # # # # # # # # # # # $ $ & = - - -   9 [.[.[.[.U.a.4.3.3.3.3.4.4.4.4.3.3.3.3.3.q.q.3.3.3.9.[.[.[.[.[.",
"[.[.[.[.[.[.[.* # # # # # # # # # # # # # # # # # # # # # # # X [.[.[.[.U.p.3.3.3.3.w.j.S.L.P.K.c.p.4.3.3.3.3.3.3.3.9.[.[.[.[.[.",
"[.[.[.[.[.[.[.7 = # # # # # # # # # # # # # # # # # # # # # & q [.[.[.U.a.3.3.3.4.j.P.[.[.[.[.[.[.R.v.w.3.3.3.3.3.3.9.[.[.[.[.[.",
"[.[.[.[.[.[.[.[.[.* $ # # # # # # # # # # # # # # # # # # # 2 [.[.[.[.h.4.3.3.q.v.[.[.[.[.[.[.[.[.[.[.K.p.3.3.3.3.3.9.[.[.[.[.[.",
"[.[.[.[.[.[.[.[.[.[., & % # # # # # # # # # # # # # # # # $ 0 [.[.[.A.q.3.3.4.v.[.[.[.[.[.[.[.[.[.[.[.[.K.t.3.3.3.3.0.[.[.[.[.[.",
"[.[.[.[.[.!.].[.[.[.[.[., * $ # # # # # # # # # # # # # # - [.[.[.[.a.3.3.3.h.[.[.[.[.[.[.[.[.[.[.[.[.[.[.v.4.3.3.3.c.[.[.[.[.[.",
"[.[.[.[.[./.W.W.[.[.[.[.[.[.5 , = $ # # # # # # # # # # # 3 [.[.[.[.t.3.3.q.K.[.[.[.[.[.[.[.[.[.[.[.[.[.[.[.p.3.3.3.h.[.[.[.[.[.",
"[.[.[.[.[.).W.W.W.[.[.[.[.[.[.[.[.u < > = $ % # # # # # # o [.[.[.Y.q.3.3.h.[.[.[.[.[.[.[.[.[.[.[.[.[.[.[.[.c.3.3.3.q.[.[.[.[.[.",
"[.[.[.[.[.).W.W.W.W.[.[.[.[.[.[.[.[.[.[.[.i 4 1 ; > 2 + O 8 [.[.[.H.,.3.3.S.[.[.[.[.[.[.[.[.[.[.[.[.[.[.[.[.I.4.3.3.3.[.[.[.[.[.",
"[.[.[.[.[.~.W.W.W.W.W.W.[.[.[.[.[.[.[.[.[.[.[.[.[.[.[.[.[.[.[.[.[.H.>.3.4.L.[.[.[.[.[.[.[.[.[.[.[.[.[.[.[.[.E.1.3.3.3.[.[.[.[.[.",
"[.[.[.[.[.W.W.W.W.W.W.W.W.W.W.[.[.[.[.[.[.[.[.[.[.[.[.[.[.[.[.[.[.F.>.3.4.L.[.[.[.[.[.[.[.[.[.[.[.[.[.[.[.[.E.1.3.3.3.[.[.[.[.[.",
"[.[.[.[.[.W.W.W.W.W.W.W.W.W.W.W.W.W.[.[.[.[.[.[.[.[.[.[.[.[.[.[.[.z.,.3.3.D.[.[.[.[.[.[.[.[.[.[.[.[.[.[.[.[.P.4.3.3.3.[.[.[.[.[.",
"[.[.[.[.[.[.W.W.W.W.W.W.W.W.W.W.W.W.W.W.W.W.[.[.[.[.[.[.[.[.[.[.[.f.,.3.3.h.[.[.[.[.[.[.[.[.[.[.[.[.[.[.[.[.k.3.3.3.p.[.[.[.[.[.",
"[.[.[.[.[.[.W.W.W.W.W.W.W.W.W.W.W.W.W.W.W.W.W.W.W.W.W.W.W.W.[.[.[.[.2.3.3.q.J.[.[.[.[.[.[.[.[.[.[.[.[.[.[.[.t.3.3.q.J.[.[.[.[.[.",
"[.[.[.[.[.[.W.W.W.W.W.W.W.W.W.W.W.W.W.W.W.W.W.W.W.W.W.W.W.W.[.[.[.[.0.3.3.3.a.[.[.[.[.[.[.[.[.[.[.[.[.[.[.c.4.3.3.a.[.[.[.[.[.[.",
"[.[.[.[.[.[.[.W.W.W.W.W.W.W.W.W.W.W.W.W.W.W.W.W.W.W.W.W.W.W.W.[.[.[.z.w.3.3.4.c.[.[.[.[.[.[.[.[.[.[.[.[.G.w.3.3.4.S.[.[.[.[.[.[.",
"[.[.[.[.[.[.[.[.W.W.W.W.W.W.W.W.W.W.W.W.W.W.W.W.W.W.W.W.W.W.W.[.[.[.[.0.4.3.3.q.v.[.[.[.[.[.[.[.[.[.[.D.t.3.3.3.p.[.[.[.[.[.[.[.",
"[.[.[.[.[.[.[.[.[.W.W.W.W.W.W.W.W.W.W.W.W.W.W.W.W.W.W.W.W.W.W.W.[.[.[.[.a.3.3.3.4.a.J.[.[.[.[.[.[.I.k.q.3.3.3.t.J.[.[.[.[.[.[.[.",
"[.[.[.[.[.[.[.[.[.[.[.W.W.W.W.W.W.W.W.W.W.W.W.W.W.W.W.W.W.W.W.W.[.[.[.[.d.p.3.3.3.3.q.h.A.G.J.D.k.t.4.3.3.3.w.G.[.[.[.[.[.[.[.[.",
"[.[.[.[.[.[.[.[.[.[.[.[.[.W.W.W.W.W.W.W.W.W.W.W.W.W.W.W.W.W.W.W.W.[.[.[.[.l.a.4.3.3.3.3.3.4.4.4.3.3.3.3.3.t.J.[.[.[.[.[.[.[.[.[.",
"[.[.[.[.[.[.[.[.[.[.[.[.[.[.[.W.W.W.W.W.W.W.W.W.W.W.W.W.W.W.W.W.W.W.[.[.[.[.[.c.w.3.3.3.3.3.3.3.3.3.3.4.h.P.[.[.[.[.[.[.[.[.[.[.",
"[.[.[.[.[.[.[.[.[.[.[.[.[.[.[.[.[.[.[.W.W.W.W.W.W.W.W.W.W.W.W.W.W.W.[.[.[.[.[.[.K.h.w.4.3.3.3.3.3.q.p.A.[.[.[.[.[.[.[.[.[.[.[.[.",
"[.[.[.[.[.[.[.[.[.[.[.[.[.[.[.[.[.[.[.[.[.[.[.W.W.W.W.W.^.`._.'.(.Q.W.[.[.[.[.[.[.[.K.h.4.a.k.4.w.v.[.[.[.[.[.[.[.[.[.[.[.[.[.[."
};
