/* XPM */
static char *bitcoin32[] = {
/* columns rows colors chars-per-pixel */
"32 32 159 2 ",
"   c #E63D3D",
".  c #FF3C36",
"X  c #FF3F37",
"o  c #FD3D3F",
"O  c #F44D2F",
"+  c #FB512B",
"@  c #FC5028",
"#  c #ED4D35",
"$  c #EE4E35",
"%  c #ED4F36",
"&  c #E6433D",
"*  c #E6433F",
"=  c #E6453C",
"-  c #E64C3C",
";  c #E64D3C",
":  c #ED4D3D",
">  c #EF4D3C",
",  c #F34F31",
"<  c #F04D32",
"1  c #F04E33",
"2  c #F1463D",
"3  c #F4463D",
"4  c #F6463E",
"5  c #F9423D",
"6  c #FD423D",
"7  c #F8443D",
"8  c #FB453E",
"9  c #F9463E",
"0  c #F04D3C",
"q  c #F45030",
"w  c #E53A46",
"e  c #1DAD5F",
"r  c #1EAD5F",
"t  c #1FAD5F",
"y  c #20AD5F",
"u  c #21AD5F",
"i  c #27AD5F",
"p  c #28AD5F",
"a  c #00AD6F",
"s  c #0FAD6B",
"d  c #0EAE6B",
"f  c #09AE6F",
"g  c #0EAE6D",
"h  c #0EAE6F",
"j  c #13AE62",
"k  c #14AD60",
"l  c #16AD60",
"z  c #17AD61",
"x  c #15AE64",
"c  c #18AD60",
"v  c #19AD60",
"b  c #1AAD60",
"n  c #1BAD60",
"m  c #1BAD61",
"M  c #18AE61",
"N  c #19AE61",
"B  c #18AE62",
"V  c #1CAD60",
"C  c #1DAD60",
"Z  c #1EAD60",
"A  c #1FAD60",
"S  c #13AE69",
"D  c #10AE6A",
"F  c #10AE6B",
"G  c #14AE6A",
"H  c #14AE6B",
"J  c #16AE6A",
"K  c #11AE6E",
"L  c #0CBC61",
"P  c #15B660",
"I  c #18B560",
"U  c #19B561",
"Y  c #12BA62",
"T  c #11BC62",
"R  c #02AE70",
"E  c #01AE73",
"W  c #06AE70",
"Q  c #06AE71",
"!  c #08AE71",
"~  c #0AAE71",
"^  c #20AD60",
"/  c #05C26A",
"(  c #08C26B",
")  c #F0C304",
"_  c #F0C307",
"`  c #F0C405",
"'  c #FFC500",
"]  c #FFC403",
"[  c #FAC307",
"{  c #FFC405",
"}  c #FFC406",
"|  c #FFC506",
" . c #FFC407",
".. c #FFC507",
"X. c #FBCC01",
"o. c #FFCF00",
"O. c #F0C308",
"+. c #F0C309",
"@. c #F0C408",
"#. c #F0C409",
"$. c #F0C509",
"%. c #F0C50A",
"&. c #F0C30E",
"*. c #F0C30F",
"=. c #F7C30F",
"-. c #F0C50D",
";. c #F9C309",
":. c #FBC309",
">. c #FDC308",
",. c #F9C408",
"<. c #FAC409",
"1. c #FBC409",
"2. c #FCC409",
"3. c #FFC408",
"4. c #FFC508",
"5. c #FEC409",
"6. c #FFC409",
"7. c #FFC509",
"8. c #FFC40A",
"9. c #FFC50A",
"0. c #F9C30F",
"q. c #FAC40D",
"w. c #FCC50C",
"e. c #F0CE09",
"r. c #F0CC0B",
"t. c #FFD600",
"y. c #F0D70A",
"u. c #F0C310",
"i. c #F0C410",
"p. c #F0C411",
"a. c #F0C412",
"s. c #F0C413",
"d. c #F0C414",
"f. c #F0C514",
"g. c #F0C515",
"h. c #F0C516",
"j. c #F0C517",
"k. c #F8C310",
"l. c #F9C517",
"z. c #F0C518",
"x. c #F1C519",
"c. c #665FB7",
"v. c #6A5CB5",
"b. c #6256BE",
"n. c #6D67AF",
"m. c #6F67AE",
"M. c #7167A5",
"N. c #7867A5",
"B. c #7969A5",
"V. c #7A6AA6",
"C. c #7067AC",
"Z. c #7167AC",
"A. c #7168AD",
"S. c #6567B6",
"D. c #6467B7",
"F. c #6B67B1",
"G. c #6467B8",
"H. c #7061B1",
"J. c None",
/* pixels */
"J.J.J.J.J.J.J.J.J.J.s.i.*.*.i.p.u.*.a.d.j.J.J.J.J.J.J.J.J.J.J.J.",
"J.J.J.J.J.J.J.a.p.*.*.&.&.&.&.&.&.&.&.*.u.p.d.j.J.J.J.J.J.J.J.J.",
"J.J.J.J.J.u.*.&.&.&.&.&.&.&.&.&.&.&.&.&.&.&.&.u.a.J.J.J.J.J.J.J.",
"J.J.J.J.*.&.&.&.&.&.&.&.&.&.&.&.&.&.&.&.&.&.&.&.&.u.h.J.J.J.J.J.",
"J.J.J.*.&.&.&.&.&.&.&.&.&.&.&.&.&.&.&.&.&.&.&.&.&.&.i.J.J.J.J.J.",
"J.J.J.&.&.&.&.&.&.&.&.&.&.&.&.&.&.&.&.&.&.&.&.&.&.&.*.g.J.J.J.J.",
"J.J.J.*.&.&.&.&.&.&.&.&.&.&.&.&.&.&.&.&.&.&.&.&.&.&.*.-.J.J.J.J.",
"J.J.J.8.0.&.&.&.&.&.&.&.&.&.&.&.&.&.&.&.&.&.&.&.&.&.1.J.J.J.J.J.",
"J.J.J.J.{ >.&.&.&.&.&.&.&.&.&.&.&.&.&.&.&.&.&.&.=. .J.J.J.J.J.J.",
"J.J.J.J.J.] } :.*.&.&.&.&.&.&.&.&.&.&.&.&.&.=.3.| J.J.J.J.J.J.J.",
"J.J.J.s J.J.J.J.4.6.2.;.=.*.*.*.*.=.k.<.5.6...J.J.J.R x J.J.J.J.",
"J.J.J.y l f J.J.J.J.J.J.7.9.7.4.....7.J.J.J.J.J.J.d k j J.J.J.J.",
"J.J.J.i i r c g J.J.J.J.J.J.J.J.J.J.J.J.J.J.! S b v D J.J.J.J.J.",
"J.J.J.^ i i i y C m B H h W a J.R ~ K J N V Z i y z J.J.J.J.J.J.",
"J.J.J.T b i i i i i i p ^ r e e r A u i i i i i t h J.' { J.J.J.",
"J.J.J.J./ P t i i i i i i i i i i i i i i i i i n E J.{ _ J.J.J.",
"J.J.J.J.J.J.L I Z i i i i i i i i i i i u r V m G J.J.3.*.@.J.J.",
"J.J.J.5 . J.J.J.( Y U m V V C Z A A C M F Q J.J.J.J.J.q.*.$.J.J.",
"J.J.J.- 0 6 J.J.J.J.J.J.J.J.J.J.J.J.J.J.J.J.J.J.J.J.J.d.*.$.J.J.",
"J.J.J.- - - 0 7 X J.J.J.J.J.J.J.J.J.J.J.J.|  .6.w.l.J.d.*.$.J.J.",
"J.J.J.: - - - - ; > 2 3 4 9 8 o J.J.J.6.[ O.+.i.u.u.s.p.*.$.J.J.",
"J.J.J.J.< - - - - - - - - - =   J.J.r.*.p.f.J.J.h.p.*.&.*.$.J.J.",
"J.J.J.J.J.O ; - - - - - - - = w J.y.*.p.J.J.J.J.J.J.a.&.*.%.J.J.",
"J.J.J.J.J.J.@ , # ; - - - - & J.J.e.u.h.J.J.J.J.J.J.J.i.*.$.J.J.",
"J.J.J.A.S.J.J.J.J.+ q 1 $ % * J.J.#.a.J.J.J.J.J.J.J.J.s.*.J.J.J.",
"J.J.J.N.N.n.G.J.J.J.J.J.J.J.J.J.J.@.f.J.J.J.J.J.J.J.J.j.*.J.J.J.",
"J.J.J.N.N.N.N.C.F.D.J.J.J.J.J.J.J.` s.J.J.J.J.J.J.J.J.s.*.J.J.J.",
"J.J.J.N.N.N.N.N.N.N.N.M.C.m.c.J.J.X.O.h.J.J.J.J.J.J.J.u.i.J.J.J.",
"J.J.J.J.N.N.N.N.N.N.N.N.N.N.Z.J.J.t.) p.J.J.J.J.J.J.a.*.s.J.J.J.",
"J.J.J.J.J.N.N.N.N.N.N.N.N.N.N.v.J.J.o._ i.f.z.x.g.p.*.a.J.J.J.J.",
"J.J.J.J.J.J.J.N.N.N.N.N.N.N.N.N.b.J.J.,.u.*.u.u.*.u.s.J.J.J.J.J.",
"J.J.J.J.J.J.J.J.J.J.N.N.N.N.B.V.H.J.J.J.h.p.u.u.i.f.J.J.J.J.J.J."
};
